# File created by Blade
# Date/Time:  Tue Sep 30 19:10:59 2014
#---------------------------------------------------------
:version 1.10
:name HOM
:units
  mass 1.0
  length 1.000000
  angle deg
:documentation
     Acclaim Skeleton File
:root
   axis xyz
   order TX TY TZ RX RY RZ
   position 0.000000 0.000000 0.000000
   orientation 0 0 0
:bonedata
   begin
      id 1
      name Spine_dum
      direction 0.000000 1.000000 0.000000
      length 7.508948
      axis 0.0 0.0 0.0 xyz
   end
   begin
      id 2
      name LeftUpLeg_dum
      direction 1.000000 0.000000 0.000000
      length 3.000560
      axis 0.0 0.0 0.0 xyz
   end
   begin
      id 3
      name RightUpLeg_dum
      direction -1.000000 0.000000 0.000000
      length 3.000560
      axis 0.0 0.0 0.0 xyz
   end
   begin
      id 4
      name Spine
      direction 0.000000 1.000000 0.000000
      length 0.000000
      axis 0.0 0.0 0.0 xyz
      dof rx ry rz
   end
   begin
      id 5
      name Spine_dum1
      direction 0.000000 1.000000 0.000000
      length 13.861154
      axis 0.0 0.0 0.0 xyz
   end
   begin
      id 6
      name Spine_dum2
      direction 0.000000 1.000000 0.000000
      length 8.204781
      axis 0.0 0.0 0.0 xyz
   end
   begin
      id 7
      name Spine_dum3
      direction 0.000000 1.000000 0.000000
      length 8.204781
      axis 0.0 0.0 0.0 xyz
   end
   begin
      id 8
      name Head
      direction 0.000000 1.000000 0.000000
      length 4.527550
      axis 0.0 0.0 0.0 xyz
      dof rx ry rz
   end
   begin
      id 9
      name LeftShoulder
      direction 1.000000 0.000000 0.000000
      length 6.635956
      axis 0.0 0.0 -90.0 xyz
      dof rx ry rz
   end
   begin
      id 10
      name LeftArm
      direction 1.000000 0.000000 0.000000
      length 10.274218
      axis 0.0 0.0 -90.0 xyz
      dof rx ry rz
   end
   begin
      id 11
      name LeftForeArm
      direction 1.000000 0.000000 0.000000
      length 8.522147
      axis 0.0 0.0 -90.0 xyz
      dof ry rz rx
   end
   begin
      id 12
      name LeftHand
      direction 0.000000 0.000000 0.000000
      length 0.000000
      axis 0.0 0.0 -90.0 xyz
      dof rx ry rz
   end
   begin
      id 13
      name LeftHand_dum1
      direction 0.000000 0.000000 0.000000
      length 0.000000
      axis 0.0 0.0 -90.0 xyz
   end
   begin
      id 14
      name LeftHand_dum2
      direction 1.000000 0.000000 0.000000
      length 3.937000
      axis 0.0 0.0 -90.0 xyz
   end
   begin
      id 15
      name LeftHandThumb1
      direction 0.000000 0.000000 1.000000
      length 3.937000
      axis 0.0 0.0 -90.0 xyz
      dof rx rz ry
   end
   begin
      id 16
      name RightShoulder
      direction -1.000000 0.000000 0.000000
      length 6.635956
      axis 0.0 0.0 90.0 xyz
      dof rx ry rz
   end
   begin
      id 17
      name RightArm
      direction -1.000000 0.000000 0.000000
      length 10.274218
      axis 0.0 0.0 90.0 xyz
      dof rx ry rz
   end
   begin
      id 18
      name RightForeArm
      direction -1.000000 0.000000 0.000000
      length 8.522147
      axis 0.0 0.0 90.0 xyz
      dof ry rz rx
   end
   begin
      id 19
      name RightHand
      direction 0.000000 0.000000 0.000000
      length 0.000000
      axis 0.0 0.0 90.0 xyz
      dof rx ry rz
   end
   begin
      id 20
      name RightHand_dum1
      direction 0.000000 0.000000 0.000000
      length 0.000000
      axis 0.0 0.0 90.0 xyz
   end
   begin
      id 21
      name RightHand_dum2
      direction -1.000000 0.000000 0.000000
      length 3.937000
      axis 0.0 0.0 90.0 xyz
   end
   begin
      id 22
      name RightHandThumb1
      direction 0.000000 0.000000 1.000000
      length 3.937000
      axis 0.0 0.0 90.0 xyz
      dof rx rz ry
   end
   begin
      id 23
      name LeftUpLeg
      direction 0.000000 -1.000000 0.000000
      length 16.490845
      axis 0.0 0.0 0.0 xyz
      dof rx ry rz
   end
   begin
      id 24
      name LeftLeg
      direction 0.000000 -1.000000 0.000000
      length 14.556576
      axis 0.0 0.0 0.0 xyz
      dof rx ry rz
   end
   begin
      id 25
      name LeftFoot
      direction 0.000000 -0.258819 0.965926
      length 4.831116
      axis 15.0 0.0 0.0 xyz
      dof rx ry rz
   end
   begin
      id 26
      name LeftToeBase
      direction 0.000000 0.000000 1.000000
      length 2.952750
      axis 0.0 0.0 0.0 xyz
      dof rx ry rz
   end
   begin
      id 27
      name RightUpLeg
      direction 0.000000 -1.000000 0.000000
      length 16.490845
      axis 0.0 0.0 0.0 xyz
      dof rx ry rz
   end
   begin
      id 28
      name RightLeg
      direction 0.000000 -1.000000 0.000000
      length 14.556576
      axis 0.0 0.0 0.0 xyz
      dof rx ry rz
   end
   begin
      id 29
      name RightFoot
      direction 0.000000 -0.258819 0.965926
      length 4.831116
      axis 15.0 0.0 0.0 xyz
      dof rx ry rz
   end
   begin
      id 30
      name RightToeBase
      direction 0.000000 0.000000 1.000000
      length 2.952750
      axis 0.0 0.0 0.0 xyz
      dof rx ry rz
   end
:hierarchy
   begin
      root Spine_dum LeftUpLeg_dum RightUpLeg_dum
      Spine_dum Spine
      LeftUpLeg_dum LeftUpLeg
      RightUpLeg_dum RightUpLeg
      Spine Spine_dum1 Spine_dum2 Spine_dum3
      Spine_dum1 Head
      Spine_dum2 LeftShoulder
      Spine_dum3 RightShoulder
      LeftShoulder LeftArm
      LeftArm LeftForeArm
      LeftForeArm LeftHand
      LeftHand LeftHand_dum1 LeftHand_dum2
      LeftHand_dum1 LeftHandThumb1
      RightShoulder RightArm
      RightArm RightForeArm
      RightForeArm RightHand
      RightHand RightHand_dum1 RightHand_dum2
      RightHand_dum1 RightHandThumb1
      LeftUpLeg LeftLeg
      LeftLeg LeftFoot
      LeftFoot LeftToeBase
      RightUpLeg RightLeg
      RightLeg RightFoot
      RightFoot RightToeBase
   end

# File created by Blade
# Date/Time:  Wed Sep 24 20:21:23 2014
# Frame Rate: 120.000 fps
#------------------------------------------------------
:FULLY-SPECIFIED
:DEGREES
1
root -3.432435 32.683249 -4.031624 12.522265 3.624130 -1.885861
Spine -14.119012 4.822880 2.088708
Head -8.033498 -7.993503 8.840115
LeftShoulder -13.113095 20.190953 26.565503
LeftArm 20.494827 -21.961417 -32.210178
LeftForeArm 10.024657 0.000000 14.068643
LeftHand -26.914634 0.000000 -3.111547
LeftHandThumb1 -26.253704 0.000000 33.147579
RightShoulder -18.526846 11.767121 -38.661919
RightArm -12.297383 6.204731 35.799307
RightForeArm -29.283056 -0.000000 17.390550
RightHand -10.730085 -0.000000 8.196796
RightHandThumb1 -24.326973 -0.000000 -32.862282
LeftUpLeg -5.410668 7.694857 2.322633
LeftLeg -1.835495 -0.000000 0.000000
LeftFoot -14.387416 11.477591 -16.217519
LeftToeBase 7.302805 -0.000000 -0.000000
RightUpLeg -8.247721 -6.293913 1.437728
RightLeg 2.401480 -0.000000 -0.000000
RightFoot -10.449003 -6.462007 -5.142512
RightToeBase -0.022073 -0.000000 0.000000
2
root -3.436972 32.683967 -4.034498 12.536210 3.627082 -1.913772
Spine -14.132274 4.831539 2.113836
Head -8.055240 -7.985349 8.828423
LeftShoulder -13.084679 20.162499 26.576325
LeftArm 20.459100 -21.926624 -32.176475
LeftForeArm 9.986717 -0.000000 14.031681
LeftHand -26.914920 -0.000000 -3.052512
LeftHandThumb1 -26.253704 0.000000 33.147579
RightShoulder -18.535995 11.763749 -38.671268
RightArm -12.305948 6.243466 35.802466
RightForeArm -29.323364 -0.000000 17.390762
RightHand -10.723586 0.000000 8.202395
RightHandThumb1 -24.326973 -0.000000 -32.862282
LeftUpLeg -5.433592 7.688013 2.359692
LeftLeg -1.831930 -0.000000 0.000000
LeftFoot -14.387008 11.467323 -16.298802
LeftToeBase 7.146577 -0.000000 -0.000000
RightUpLeg -8.200806 -6.127907 1.447420
RightLeg 2.265400 -0.000000 -0.000000
RightFoot -10.367725 -6.558640 -5.058006
RightToeBase 0.003411 -0.000000 -0.000000
3
root -3.434650 32.683223 -4.036150 12.521806 3.622805 -1.891986
Spine -14.106110 4.830274 2.088348
Head -8.086053 -7.974291 8.845294
LeftShoulder -13.090222 20.180546 26.574493
LeftArm 20.465127 -21.929439 -32.159111
LeftForeArm 9.964412 -0.000000 14.033367
LeftHand -26.950414 0.000000 -3.058258
LeftHandThumb1 -26.253704 0.000000 33.147579
RightShoulder -18.542274 11.754646 -38.643294
RightArm -12.286569 6.426568 35.760609
RightForeArm -29.482096 -0.000000 17.371909
RightHand -10.680809 -0.000000 8.244944
RightHandThumb1 -24.326973 -0.000000 -32.862282
LeftUpLeg -5.420908 7.671996 2.334450
LeftLeg -1.830526 -0.000000 0.000000
LeftFoot -14.392986 11.504070 -16.231906
LeftToeBase 7.264666 -0.000000 -0.000000
RightUpLeg -8.252240 -6.257828 1.443716
RightLeg 2.394507 -0.000000 -0.000000
RightFoot -10.441198 -6.499948 -5.133445
RightToeBase 0.014432 -0.000000 -0.000000
4
root -3.434289 32.683548 -4.038169 12.520959 3.616800 -1.886735
Spine -14.098992 4.831570 2.085101
Head -8.108429 -7.969334 8.829305
LeftShoulder -13.092384 20.179903 26.565397
LeftArm 20.454184 -21.945219 -32.149824
LeftForeArm 9.994446 -0.000000 14.033905
LeftHand -26.911409 -0.000000 -3.032670
LeftHandThumb1 -26.253704 0.000000 33.147579
RightShoulder -18.544492 11.763717 -38.630380
RightArm -12.289779 6.424241 35.746928
RightForeArm -29.495801 -0.000000 17.366222
RightHand -10.668285 -0.000000 8.176275
RightHandThumb1 -24.326973 -0.000000 -32.862282
LeftUpLeg -5.425890 7.689616 2.323630
LeftLeg -1.823707 -0.000000 0.000000
LeftFoot -14.387733 11.497927 -16.226504
LeftToeBase 7.276073 -0.000000 -0.000000
RightUpLeg -8.272981 -6.284499 1.441989
RightLeg 2.430514 -0.000000 -0.000000
RightFoot -10.450725 -6.472192 -5.160511
RightToeBase 0.004962 -0.000000 -0.000000
